<svg width="514" height="128" viewBox="0 0 514 128" fill="none" xmlns="http://www.w3.org/2000/svg">
<path d="M64.7794 1.58676C67.7362 -0.52892 71.7114 -0.528918 74.6682 1.58676L135.07 44.8067C137.693 46.3788 139.448 49.2486 139.448 52.5284V119.003C139.448 123.972 135.42 128 130.451 128H8.99662C4.02792 128 0 123.972 0 119.003V52.5284C0 49.2486 1.75509 46.3786 4.37732 44.8066L64.7794 1.58676Z" fill="#BA3FE6"/>
<path d="M74.6682 1.58676C71.7114 -0.528918 67.7362 -0.52892 64.7794 1.58676L4.37732 44.8066C1.75509 46.3786 0 49.2486 0 52.5284V53.0282H139.448V52.5284C139.448 49.2486 137.693 46.3788 135.07 44.8067L74.6682 1.58676Z" fill="black" fill-opacity="0.1"/>
<path d="M55.2169 90.9397C60.5928 90.9397 64.9509 86.5817 64.9509 81.2058C64.9509 75.8298 60.5928 71.4718 55.2169 71.4718C49.841 71.4718 45.4829 75.8298 45.4829 81.2058C45.4829 86.5817 49.841 90.9397 55.2169 90.9397Z" fill="white"/>
<path d="M45.4829 61.7378C53.2277 61.7378 60.6554 64.8144 66.1318 70.2909C71.6082 75.7673 74.6848 83.1949 74.6848 90.9397H84.4188C84.4188 80.6133 80.3166 70.7098 73.0148 63.4079C65.7129 56.106 55.8094 52.0038 45.4829 52.0038V61.7378Z" fill="white"/>
<path d="M45.4829 42.2699C51.8744 42.2699 58.2032 43.5287 64.1081 45.9746C70.013 48.4205 75.3783 52.0055 79.8977 56.5249C84.4171 61.0444 88.0021 66.4097 90.448 72.3146C92.8939 78.2195 94.1528 84.5483 94.1528 90.9397H103.887C103.887 75.4501 97.7335 60.5948 86.7807 49.642C75.8278 38.6891 60.9726 32.5359 45.4829 32.5359V42.2699Z" fill="white"/>
<path d="M0 52.5363L69.4739 95.5121L138.961 52.5283L139.448 52.5283V119.003C139.448 123.972 135.42 128 130.451 128H8.99662C4.02792 128 0 123.972 0 119.003V52.5363Z" fill="#C152E8"/>
<path d="M69.4739 95.5121L0 53.0281L69.4739 88.5147L139.198 53.0281L69.4739 95.5121Z" fill="#0C0C0C" fill-opacity="0.15"/>
<path d="M186.43 106.698V37.3091H236.496V44.856H194.285V68.9639H231.887V76.6155H194.285V106.698H186.43Z" fill="#A437C9"/>
<path d="M263.834 107.537C258.527 107.537 253.883 106.349 249.903 103.973C245.923 101.527 242.816 98.2428 240.581 94.12C238.417 89.9972 237.334 85.4551 237.334 80.4938C237.334 75.4625 238.382 70.9205 240.477 66.8676C242.571 62.7447 245.574 59.4954 249.484 57.1196C253.395 54.6738 258.003 53.451 263.31 53.451C268.687 53.451 273.295 54.6738 277.136 57.1196C281.046 59.4954 284.049 62.7447 286.143 66.8676C288.238 70.9205 289.286 75.4625 289.286 80.4938V83.6383H245.399C245.818 86.7129 246.796 89.543 248.332 92.1285C249.938 94.6441 252.068 96.6705 254.721 98.2079C257.375 99.6753 260.447 100.409 263.938 100.409C267.639 100.409 270.747 99.6054 273.26 97.9982C275.774 96.3211 277.729 94.1899 279.126 91.6044H287.714C285.899 96.2862 283.001 100.13 279.021 103.134C275.111 106.069 270.048 107.537 263.834 107.537ZM245.504 76.3011H281.116C280.418 71.8289 278.532 68.0904 275.46 65.0857C272.387 62.0809 268.338 60.5785 263.31 60.5785C258.282 60.5785 254.232 62.0809 251.16 65.0857C248.158 68.0904 246.272 71.8289 245.504 76.3011Z" fill="#A437C9"/>
<path d="M322.136 107.537C316.83 107.537 312.186 106.349 308.206 103.973C304.226 101.527 301.119 98.2428 298.884 94.12C296.719 89.9972 295.637 85.4551 295.637 80.4938C295.637 75.4625 296.685 70.9205 298.779 66.8676C300.874 62.7447 303.877 59.4954 307.787 57.1196C311.697 54.6738 316.306 53.451 321.613 53.451C326.989 53.451 331.598 54.6738 335.438 57.1196C339.349 59.4954 342.351 62.7447 344.446 66.8676C346.541 70.9205 347.588 75.4625 347.588 80.4938V83.6383H303.702C304.121 86.7129 305.099 89.543 306.635 92.1285C308.241 94.6441 310.371 96.6705 313.024 98.2079C315.677 99.6753 318.75 100.409 322.241 100.409C325.942 100.409 329.049 99.6054 331.563 97.9982C334.077 96.3211 336.032 94.1899 337.429 91.6044H346.017C344.202 96.2862 341.304 100.13 337.324 103.134C333.413 106.069 328.351 107.537 322.136 107.537ZM303.807 76.3011H339.419C338.72 71.8289 336.835 68.0904 333.763 65.0857C330.69 62.0809 326.64 60.5785 321.613 60.5785C316.585 60.5785 312.535 62.0809 309.463 65.0857C306.46 68.0904 304.575 71.8289 303.807 76.3011Z" fill="#A437C9"/>
<path d="M379.287 107.537C374.19 107.537 369.721 106.349 365.88 103.973C362.11 101.527 359.177 98.2428 357.082 94.12C354.987 89.9972 353.94 85.4551 353.94 80.4938C353.94 75.4625 354.987 70.9205 357.082 66.8676C359.177 62.7447 362.11 59.4954 365.88 57.1196C369.721 54.6738 374.19 53.451 379.287 53.451C383.616 53.451 387.317 54.2895 390.39 55.9666C393.532 57.6436 396.08 59.9147 398.036 62.7797V33.3261H405.891V106.698H398.036V98.3127C396.08 101.108 393.532 103.344 390.39 105.021C387.317 106.698 383.616 107.537 379.287 107.537ZM380.334 100.409C384.245 100.409 387.527 99.5006 390.18 97.6838C392.903 95.8669 394.963 93.4562 396.36 90.4514C397.756 87.3768 398.455 84.0576 398.455 80.4938C398.455 76.8601 397.756 73.5409 396.36 70.5361C394.963 67.5314 392.903 65.1206 390.18 63.3038C387.527 61.4869 384.245 60.5785 380.334 60.5785C376.494 60.5785 373.177 61.4869 370.384 63.3038C367.591 65.1206 365.461 67.5314 363.995 70.5361C362.529 73.5409 361.795 76.8601 361.795 80.4938C361.795 84.0576 362.529 87.3768 363.995 90.4514C365.461 93.4562 367.591 95.8669 370.384 97.6838C373.177 99.5006 376.494 100.409 380.334 100.409Z" fill="#A437C9"/>
<path d="M416.022 45.4849V35.2128H424.506V45.4849H416.022ZM416.337 106.698V54.2895H424.192V106.698H416.337Z" fill="#A437C9"/>
<path d="M440.33 106.698V61.2074H431.323V54.2895H440.33V49.6775C440.33 43.9475 442.041 39.65 445.463 36.785C448.954 33.92 453.702 32.4875 459.707 32.4875H460.336V39.9296H459.288C455.657 39.9296 452.899 40.7681 451.014 42.4452C449.128 44.0524 448.186 46.6728 448.186 50.3064V54.2895H460.336V61.2074H448.186V106.698H440.33Z" fill="#A437C9"/>
<path d="M474.333 127.452L483.865 105.964L462.498 54.2895H471.191L488.054 97.2645L505.232 54.2895H513.82L482.817 127.452H474.333Z" fill="#A437C9"/>
</svg>
