<svg width="394" height="421" viewBox="0 0 394 421" fill="none" xmlns="http://www.w3.org/2000/svg">
<path fill-rule="evenodd" clip-rule="evenodd" d="M186.608 3.17471C192.523 -1.05824 200.477 -1.05823 206.392 3.17471L255.197 38.0963L285.489 59.771L327.242 89.6471C332.489 92.7925 336 98.5343 336 105.096V238.096C336 248.037 327.941 256.096 318 256.096H75C65.0589 256.096 57 248.037 57 238.096V105.096C57 98.5341 60.5115 92.7922 65.7579 89.6469L107.492 59.7848L107.511 59.771L137.803 38.0963L186.608 3.17471Z" fill="#BA3FE6"/>
<path fill-rule="evenodd" clip-rule="evenodd" d="M206.392 3.17471C200.477 -1.05823 192.523 -1.05824 186.608 3.17471L137.803 38.0963L107.511 59.771L107.492 59.7848L65.7579 89.6469C60.5115 92.7922 57 98.5341 57 105.096V106.096H336V105.096C336 98.5343 332.489 92.7925 327.242 89.6471L285.489 59.771L255.197 38.0963L206.392 3.17471Z" fill="black" fill-opacity="0.1"/>
<path d="M167.475 181.948C178.231 181.948 186.951 173.228 186.951 162.473C186.951 151.717 178.231 142.997 167.475 142.997C156.719 142.997 148 151.717 148 162.473C148 173.228 156.719 181.948 167.475 181.948Z" fill="white"/>
<path d="M148 123.522C163.495 123.522 178.356 129.678 189.313 140.635C200.27 151.592 206.426 166.452 206.426 181.948H225.901C225.901 161.287 217.694 141.473 203.084 126.864C188.475 112.254 168.661 104.047 148 104.047V123.522Z" fill="white"/>
<path d="M148 84.5716C160.788 84.5716 173.45 87.0903 185.264 91.9839C197.079 96.8775 207.813 104.05 216.855 113.092C225.898 122.135 233.07 132.869 237.964 144.684C242.858 156.498 245.376 169.16 245.376 181.948H264.852C264.852 150.957 252.54 121.235 230.627 99.3214C208.713 77.4074 178.991 65.0963 148 65.0963V84.5716Z" fill="white"/>
<path fill-rule="evenodd" clip-rule="evenodd" d="M57 105.112L196 191.096L335.026 105.096L336 105.096V238.096C336 248.037 327.941 256.096 318 256.096H75C65.0589 256.096 57 248.037 57 238.096V105.112Z" fill="#C152E8"/>
<path d="M196 191.096L57 106.096L196 177.096L335.5 106.096L196 191.096Z" fill="#0C0C0C" fill-opacity="0.15"/>
<path d="M0 395.208V311.796H60.228V320.868H9.45V349.848H54.684V359.046H9.45V395.208H0Z" fill="#A437C9"/>
<path d="M93.115 396.216C86.731 396.216 81.145 394.788 76.357 391.932C71.569 388.992 67.831 385.044 65.143 380.088C62.539 375.132 61.237 369.672 61.237 363.708C61.237 357.66 62.497 352.2 65.017 347.328C67.537 342.372 71.149 338.466 75.853 335.61C80.557 332.67 86.101 331.2 92.485 331.2C98.953 331.2 104.497 332.67 109.117 335.61C113.821 338.466 117.433 342.372 119.953 347.328C122.473 352.2 123.733 357.66 123.733 363.708V367.488H70.939C71.443 371.184 72.619 374.586 74.467 377.694C76.399 380.718 78.961 383.154 82.153 385.002C85.345 386.766 89.041 387.648 93.241 387.648C97.693 387.648 101.431 386.682 104.455 384.75C107.479 382.734 109.831 380.172 111.511 377.064H121.843C119.659 382.692 116.173 387.312 111.385 390.924C106.681 394.452 100.591 396.216 93.115 396.216ZM71.065 358.668H113.905C113.065 353.292 110.797 348.798 107.101 345.186C103.405 341.574 98.533 339.768 92.485 339.768C86.437 339.768 81.565 341.574 77.869 345.186C74.257 348.798 71.989 353.292 71.065 358.668Z" fill="#A437C9"/>
<path d="M163.252 396.216C156.868 396.216 151.282 394.788 146.494 391.932C141.706 388.992 137.968 385.044 135.28 380.088C132.676 375.132 131.374 369.672 131.374 363.708C131.374 357.66 132.634 352.2 135.154 347.328C137.674 342.372 141.286 338.466 145.99 335.61C150.694 332.67 156.238 331.2 162.622 331.2C169.09 331.2 174.634 332.67 179.254 335.61C183.958 338.466 187.57 342.372 190.09 347.328C192.61 352.2 193.87 357.66 193.87 363.708V367.488H141.076C141.58 371.184 142.756 374.586 144.604 377.694C146.536 380.718 149.098 383.154 152.29 385.002C155.482 386.766 159.178 387.648 163.378 387.648C167.83 387.648 171.568 386.682 174.592 384.75C177.616 382.734 179.968 380.172 181.648 377.064H191.98C189.796 382.692 186.31 387.312 181.522 390.924C176.818 394.452 170.728 396.216 163.252 396.216ZM141.202 358.668H184.042C183.202 353.292 180.934 348.798 177.238 345.186C173.542 341.574 168.67 339.768 162.622 339.768C156.574 339.768 151.702 341.574 148.006 345.186C144.394 348.798 142.126 353.292 141.202 358.668Z" fill="#A437C9"/>
<path d="M232.002 396.216C225.87 396.216 220.494 394.788 215.874 391.932C211.338 388.992 207.81 385.044 205.29 380.088C202.77 375.132 201.51 369.672 201.51 363.708C201.51 357.66 202.77 352.2 205.29 347.328C207.81 342.372 211.338 338.466 215.874 335.61C220.494 332.67 225.87 331.2 232.002 331.2C237.21 331.2 241.662 332.208 245.358 334.224C249.138 336.24 252.204 338.97 254.556 342.414V307.008H264.006V395.208H254.556V385.128C252.204 388.488 249.138 391.176 245.358 393.192C241.662 395.208 237.21 396.216 232.002 396.216ZM233.262 387.648C237.966 387.648 241.914 386.556 245.106 384.372C248.382 382.188 250.86 379.29 252.54 375.678C254.22 371.982 255.06 367.992 255.06 363.708C255.06 359.34 254.22 355.35 252.54 351.738C250.86 348.126 248.382 345.228 245.106 343.044C241.914 340.86 237.966 339.768 233.262 339.768C228.642 339.768 224.652 340.86 221.292 343.044C217.932 345.228 215.37 348.126 213.606 351.738C211.842 355.35 210.96 359.34 210.96 363.708C210.96 367.992 211.842 371.982 213.606 375.678C215.37 379.29 217.932 382.188 221.292 384.372C224.652 386.556 228.642 387.648 233.262 387.648Z" fill="#A437C9"/>
<path d="M276.194 321.624V309.276H286.4V321.624H276.194ZM276.572 395.208V332.208H286.022V395.208H276.572Z" fill="#A437C9"/>
<path d="M305.436 395.208V340.524H294.6V332.208H305.436V326.664C305.436 319.776 307.494 314.61 311.61 311.166C315.81 307.722 321.522 306 328.746 306H329.502V314.946H328.242C323.874 314.946 320.556 315.954 318.288 317.97C316.02 319.902 314.886 323.052 314.886 327.42V332.208H329.502V340.524H314.886V395.208H305.436Z" fill="#A437C9"/>
<path d="M346.341 420.156L357.807 394.326L332.103 332.208H342.561L362.847 383.868L383.511 332.208H393.843L356.547 420.156H346.341Z" fill="#A437C9"/>
</svg>
