<svg width="128" height="118" viewBox="0 0 128 118" fill="none" xmlns="http://www.w3.org/2000/svg">
<path d="M59.4615 1.4565C62.1756 -0.4855 65.8244 -0.485498 68.5385 1.4565L123.982 41.1284C126.389 42.5715 128 45.2057 128 48.2162V109.234C128 113.795 124.303 117.492 119.742 117.492H8.25806C3.69726 117.492 0 113.795 0 109.234V48.2162C0 45.2056 1.61101 42.5713 4.01798 41.1283L59.4615 1.4565Z" fill="#BA3FE6"/>
<path d="M68.5385 1.4565C65.8244 -0.485498 62.1756 -0.4855 59.4615 1.4565L4.01798 41.1283C1.61101 42.5713 0 45.2056 0 48.2162V48.675H128V48.2162C128 45.2057 126.389 42.5715 123.982 41.1284L68.5385 1.4565Z" fill="black" fill-opacity="0.1"/>
<path d="M50.6844 83.4743C55.619 83.4743 59.6193 79.474 59.6193 74.5394C59.6193 69.6048 55.619 65.6045 50.6844 65.6045C45.7498 65.6045 41.7495 69.6048 41.7495 74.5394C41.7495 79.474 45.7498 83.4743 50.6844 83.4743Z" fill="white"/>
<path d="M41.7495 56.6697C48.8586 56.6697 55.6764 59.4937 60.7033 64.5206C65.7301 69.5474 68.5542 76.3653 68.5542 83.4743H77.4891C77.4891 73.9956 73.7237 64.9051 67.0212 58.2026C60.3187 51.5002 51.2282 47.7348 41.7495 47.7348V56.6697Z" fill="white"/>
<path d="M41.7495 38.7999C47.6163 38.7999 53.4256 39.9554 58.8457 42.2005C64.2659 44.4456 69.1907 47.7363 73.3391 51.8847C77.4875 56.0331 80.7782 60.958 83.0233 66.3782C85.2684 71.7983 86.424 77.6076 86.424 83.4743H95.3589C95.3589 69.2562 89.7108 55.6205 79.6571 45.5668C69.6034 35.5131 55.9676 29.865 41.7495 29.865V38.7999Z" fill="white"/>
<path d="M0 48.2237L63.7706 87.6715L127.553 48.2163L128 48.2163V109.234C128 113.795 124.303 117.492 119.742 117.492H8.25806C3.69726 117.492 0 113.795 0 109.234V48.2237Z" fill="#C152E8"/>
<path d="M63.7706 87.6715L0 48.675L63.7706 81.2485L127.771 48.675L63.7706 87.6715Z" fill="#0C0C0C" fill-opacity="0.15"/>
</svg>
