<svg width="128" height="144" viewBox="0 0 128 144" fill="none" xmlns="http://www.w3.org/2000/svg">
<path d="M60.6477 1.03179C62.5704 -0.343931 65.1553 -0.343929 67.0779 1.03179L106.355 29.1356C108.06 30.1578 109.201 32.0239 109.201 34.1566V77.382C109.201 80.6129 106.582 83.2321 103.351 83.2321H24.375C21.1441 83.2321 18.5249 80.6129 18.5249 77.382V34.1566C18.5249 32.0239 19.6661 30.1577 21.3713 29.1355L60.6477 1.03179Z" fill="#BA3FE6"/>
<path d="M67.0779 1.03179C65.1553 -0.343929 62.5704 -0.343931 60.6477 1.03179L21.3713 29.1355C19.6661 30.1577 18.5249 32.0239 18.5249 34.1566V34.4816H109.201V34.1566C109.201 32.0239 108.06 30.1578 106.355 29.1356L67.0779 1.03179Z" fill="black" fill-opacity="0.1"/>
<path d="M54.4296 59.1336C57.9253 59.1336 60.7591 56.2998 60.7591 52.8041C60.7591 49.3084 57.9253 46.4746 54.4296 46.4746C50.9339 46.4746 48.1001 49.3084 48.1001 52.8041C48.1001 56.2998 50.9339 59.1336 54.4296 59.1336Z" fill="white"/>
<path d="M48.1001 40.1451C53.1362 40.1451 57.966 42.1456 61.527 45.7067C65.0881 49.2677 67.0887 54.0975 67.0887 59.1336H73.4182C73.4182 52.4188 70.7507 45.9791 66.0027 41.231C61.2546 36.483 54.8149 33.8155 48.1001 33.8155V40.1451Z" fill="white"/>
<path d="M48.1001 27.486C52.2561 27.486 56.3715 28.3046 60.2111 29.895C64.0508 31.4855 67.5396 33.8166 70.4783 36.7554C73.4171 39.6941 75.7482 43.1829 77.3387 47.0226C78.9291 50.8623 79.7477 54.9776 79.7477 59.1336H86.0772C86.0772 49.0615 82.0761 39.4018 74.954 32.2797C67.8319 25.1576 58.1723 21.1565 48.1001 21.1565V27.486Z" fill="white"/>
<path d="M18.5249 34.1618L63.7003 62.1069L108.884 34.1566L109.201 34.1566V77.382C109.201 80.6129 106.582 83.2321 103.351 83.2321H24.375C21.1441 83.2321 18.5249 80.6129 18.5249 77.382V34.1618Z" fill="#C152E8"/>
<path d="M63.7003 62.1068L18.5249 34.4816L63.7003 57.5568L109.038 34.4816L63.7003 62.1068Z" fill="#0C0C0C" fill-opacity="0.15"/>
<path d="M0 134.944V107.835H19.5743V110.783H3.07128V120.202H17.7725V123.191H3.07128V134.944H0Z" fill="#A437C9"/>
<path d="M30.2626 135.271C28.1878 135.271 26.3724 134.807 24.8162 133.879C23.2601 132.924 22.0453 131.64 21.1717 130.03C20.3254 128.419 19.9022 126.645 19.9022 124.706C19.9022 122.741 20.3117 120.966 21.1307 119.383C21.9497 117.772 23.1236 116.502 24.6524 115.574C26.1813 114.619 27.9831 114.141 30.0579 114.141C32.16 114.141 33.9618 114.619 35.4633 115.574C36.9922 116.502 38.1661 117.772 38.9851 119.383C39.8041 120.966 40.2136 122.741 40.2136 124.706V125.935H23.0554C23.2192 127.136 23.6014 128.242 24.202 129.252C24.8299 130.235 25.6626 131.026 26.7 131.627C27.7374 132.2 28.9386 132.487 30.3036 132.487C31.7505 132.487 32.9654 132.173 33.9482 131.545C34.931 130.89 35.6954 130.057 36.2414 129.047H39.5993C38.8895 130.876 37.7566 132.378 36.2005 133.551C34.6716 134.698 32.6924 135.271 30.2626 135.271ZM23.0963 123.068H37.0195C36.7465 121.321 36.0094 119.86 34.8081 118.686C33.6069 117.513 32.0235 116.926 30.0579 116.926C28.0923 116.926 26.5089 117.513 25.3077 118.686C24.1337 119.86 23.3966 121.321 23.0963 123.068Z" fill="#A437C9"/>
<path d="M53.0573 135.271C50.9825 135.271 49.167 134.807 47.6109 133.879C46.0548 132.924 44.8399 131.64 43.9663 130.03C43.12 128.419 42.6968 126.645 42.6968 124.706C42.6968 122.741 43.1064 120.966 43.9254 119.383C44.7444 117.772 45.9183 116.502 47.4471 115.574C48.9759 114.619 50.7777 114.141 52.8525 114.141C54.9547 114.141 56.7565 114.619 58.258 115.574C59.7868 116.502 60.9607 117.772 61.7797 119.383C62.5987 120.966 63.0082 122.741 63.0082 124.706V125.935H45.85C46.0138 127.136 46.396 128.242 46.9966 129.252C47.6245 130.235 48.4572 131.026 49.4946 131.627C50.532 132.2 51.7332 132.487 53.0982 132.487C54.5452 132.487 55.76 132.173 56.7428 131.545C57.7256 130.89 58.49 130.057 59.036 129.047H62.394C61.6842 130.876 60.5512 132.378 58.9951 133.551C57.4663 134.698 55.487 135.271 53.0573 135.271ZM45.891 123.068H59.8141C59.5411 121.321 58.804 119.86 57.6028 118.686C56.4016 117.513 54.8182 116.926 52.8525 116.926C50.8869 116.926 49.3035 117.513 48.1023 118.686C46.9284 119.86 46.1913 121.321 45.891 123.068Z" fill="#A437C9"/>
<path d="M75.4015 135.271C73.4086 135.271 71.6613 134.807 70.1598 133.879C68.6856 132.924 67.539 131.64 66.72 130.03C65.901 128.419 65.4915 126.645 65.4915 124.706C65.4915 122.741 65.901 120.966 66.72 119.383C67.539 117.772 68.6856 116.502 70.1598 115.574C71.6613 114.619 73.4086 114.141 75.4015 114.141C77.0941 114.141 78.541 114.469 79.7422 115.124C80.9707 115.779 81.9672 116.666 82.7316 117.786V106.279H85.8029V134.944H82.7316V131.668C81.9672 132.76 80.9707 133.633 79.7422 134.289C78.541 134.944 77.0941 135.271 75.4015 135.271ZM75.811 132.487C77.3398 132.487 78.6229 132.132 79.6603 131.422C80.725 130.712 81.5304 129.77 82.0764 128.596C82.6224 127.395 82.8954 126.099 82.8954 124.706C82.8954 123.287 82.6224 121.99 82.0764 120.816C81.5304 119.642 80.725 118.7 79.6603 117.99C78.6229 117.281 77.3398 116.926 75.811 116.926C74.3095 116.926 73.0127 117.281 71.9207 117.99C70.8287 118.7 69.996 119.642 69.4227 120.816C68.8494 121.99 68.5628 123.287 68.5628 124.706C68.5628 126.099 68.8494 127.395 69.4227 128.596C69.996 129.77 70.8287 130.712 71.9207 131.422C73.0127 132.132 74.3095 132.487 75.811 132.487Z" fill="#A437C9"/>
<path d="M89.7639 111.029V107.016H93.0809V111.029H89.7639ZM89.8867 134.944V114.469H92.958V134.944H89.8867Z" fill="#A437C9"/>
<path d="M99.2676 134.944V117.171H95.7458V114.469H99.2676V112.667C99.2676 110.428 99.9364 108.749 101.274 107.63C102.639 106.511 104.496 105.951 106.843 105.951H107.089V108.858H106.68C105.26 108.858 104.182 109.186 103.444 109.841C102.707 110.469 102.339 111.493 102.339 112.912V114.469H107.089V117.171H102.339V134.944H99.2676Z" fill="#A437C9"/>
<path d="M112.562 143.052L116.288 134.657L107.934 114.469H111.333L117.926 131.258L124.642 114.469H128L115.879 143.052H112.562Z" fill="#A437C9"/>
</svg>
